<svg width="214" height="178" viewBox="0 0 214 178" fill="none" xmlns="http://www.w3.org/2000/svg">
<g clip-path="url(#clip0)">
<path opacity="0.1" d="M212.623 147.142C210.842 155.556 218.151 165.088 216.767 171.544C201.547 171.544 176.642 171.544 157.733 171.544C138.823 171.544 27.7613 173.242 65.9524 166.471C46.6614 163.856 115.763 174.039 27.6722 171.544C16.1985 172.66 19.3705 173.389 8.30154 169.238C-1.3974 163.717 6.07798 148.317 3.08045 137.605C0.0829149 126.894 -0.0179924 115.622 0.00575041 104.497C0.0413646 83.5942 2.49875 58.9889 20.5552 48.3012C28.6811 43.4947 38.4869 42.6208 47.432 39.5857C62.8649 34.36 75.1933 22.9519 88.608 13.7523C92.9411 10.7999 97.4641 8.00098 102.426 6.2945C116.815 1.33447 128.745 6.11736 142.196 10.2743C156.441 14.6911 170.26 6.81412 184.612 10.174C199.588 13.6814 208.438 29.6598 210.361 44.8351C212.284 60.0104 209.174 75.3865 209.768 90.6799C210.26 104.361 213.656 117.842 214.006 131.512C214.162 136.757 213.698 142.003 212.623 147.142Z" fill="#008E46"/>
<path d="M212.623 147.142C210.842 155.556 207.115 163.386 200.68 168.989L117.432 145.051L126.549 144.579L178.528 152.739L129.399 142.317L137.293 141.237L212.623 147.142Z" fill="url(#paint0_linear)"/>
<path opacity="0.18" d="M195.718 54.9323L138.676 56.9222C136.302 57.0049 134.521 58.5755 134.521 60.6127V122.023C134.521 123.9 136.046 125.424 138.201 125.731L194.97 129.669C195.91 129.779 196.862 129.692 197.767 129.416C198.671 129.14 199.508 128.679 200.224 128.064C200.94 127.449 201.52 126.692 201.927 125.842C202.333 124.992 202.558 124.068 202.586 123.127L202.811 61.6756C202.768 59.8462 201.996 58.1089 200.667 56.8446C199.337 55.5804 197.557 54.8927 195.718 54.9323Z" fill="#008E46"/>
<path opacity="0.54" d="M31.6016 7.78251L119.842 20.4778C121.373 20.6979 122.773 21.4595 123.786 22.6232C124.799 23.7868 125.356 25.2745 125.356 26.8137V116.378C125.356 117.801 124.879 119.184 124 120.307C123.122 121.431 121.893 122.232 120.507 122.583L32.9668 144.715C31.3203 145.131 29.6001 145.169 27.9369 144.825C26.2736 144.481 24.7111 143.764 23.368 142.729C22.025 141.694 20.9368 140.368 20.1861 138.852C19.4354 137.336 19.0419 135.67 19.0357 133.98L18.6202 19.0075C18.6146 17.3839 18.9607 15.7781 19.635 14.2994C20.3094 12.8208 21.296 11.5041 22.5279 10.4389C23.7598 9.37373 25.2079 8.5851 26.7736 8.1267C28.3394 7.66831 29.9861 7.55091 31.6016 7.78251Z" fill="white"/>
<g opacity="0.18">
<path opacity="0.4" d="M26.2357 152.733C22.6907 152.724 19.2934 151.32 16.7856 148.827C14.2778 146.335 12.8632 142.956 12.8507 139.43L12.3936 13.5928C12.3863 11.6461 12.8009 9.7206 13.6092 7.94762C14.4175 6.17465 15.6004 4.59582 17.0774 3.3187C18.5544 2.04158 20.2908 1.09619 22.1683 0.546923C24.0458 -0.00233969 26.0202 -0.142564 27.9571 0.135804L124.531 14.0298C126.486 14.3204 128.272 15.2977 129.566 16.7848C130.859 18.2719 131.575 20.1706 131.583 22.1371V120.157C131.589 121.981 130.982 123.756 129.858 125.198C128.734 126.64 127.158 127.667 125.38 128.116L29.5716 152.326C28.4807 152.598 27.3603 152.735 26.2357 152.733ZM26.0042 2.3442C24.5249 2.34341 23.0601 2.63336 21.6937 3.1974C20.3274 3.76144 19.0866 4.58846 18.0425 5.63095C16.9984 6.67344 16.1716 7.91087 15.6097 9.27214C15.0477 10.6334 14.7617 12.0917 14.7679 13.5633L15.225 139.394C15.2272 141.066 15.6131 142.716 16.3532 144.217C17.0934 145.718 18.1682 147.031 19.4958 148.056C20.8234 149.081 22.3688 149.791 24.0141 150.132C25.6594 150.473 27.3612 150.436 28.9899 150.023L124.792 125.813C126.055 125.494 127.175 124.765 127.975 123.742C128.775 122.718 129.209 121.459 129.208 120.163V22.143C129.202 20.7431 128.693 19.3916 127.771 18.3334C126.85 17.2751 125.579 16.58 124.187 16.374L27.6187 2.4741C27.0843 2.39284 26.5448 2.34943 26.0042 2.3442Z" fill="#008E46"/>
</g>
<path opacity="0.18" d="M70.6469 47.5395H119.51V89.0797L70.0415 98.0845L70.6469 47.5395Z" fill="#008E46"/>
<path opacity="0.18" d="M120.18 72.5286C118.026 74.0107 117.491 76.8981 117.141 79.4785C116.69 82.797 116.251 86.2749 117.432 89.4104C122.934 87.4972 126.977 82.9151 130.758 78.4806C131.519 77.7291 132.066 76.7896 132.342 75.7585C132.446 74.7219 132.192 73.6811 131.624 72.8061C130.538 70.887 128.846 69.3931 127.333 67.7929C122.584 62.7502 119.331 56.4794 116.221 50.2852C115.924 49.6947 114.339 51.6906 114.239 51.9031C113.752 52.8892 113.805 54.2001 113.787 55.2689C113.675 57.0611 113.876 58.8591 114.381 60.5832C115.782 64.6457 118.085 68.7318 120.18 72.5286Z" fill="#68E1FD"/>
<path opacity="0.18" d="M109.074 75.5636C106.374 74.2292 103.91 72.4636 101.281 70.9933C100.384 70.4973 99.2745 70.0308 98.3901 70.5328C97.5056 71.0347 97.3454 72.3514 97.7965 73.2726C98.3315 74.1602 99.0828 74.8994 99.9808 75.4219L104.842 78.829C105.781 79.5205 106.773 80.1365 107.81 80.6713C109.146 81.2737 110.538 81.7463 111.965 82.0825L114.256 82.673C115.598 83.0332 117.093 83.3875 118.328 82.7498C118.81 82.4937 119.209 82.1071 119.479 81.6348C119.749 81.1624 119.879 80.6236 119.854 80.0808C119.693 77.6421 117.675 77.5595 115.841 77.4532C113.479 77.2893 111.177 76.6463 109.074 75.5636Z" fill="#68E1FD"/>
<path d="M128.312 139.973C127.772 140.22 127.326 140.635 127.042 141.154C126.984 141.269 126.965 141.4 126.988 141.526C127.03 141.619 127.092 141.702 127.17 141.769C127.248 141.835 127.34 141.883 127.439 141.91C128.909 142.398 130.487 142.464 131.992 142.099C133.49 141.739 135.018 141.517 136.557 141.438C136.686 141.461 136.818 141.455 136.945 141.421C137.071 141.386 137.188 141.323 137.287 141.237C137.383 141.096 137.431 140.928 137.423 140.758C137.483 139.429 137.25 138.103 136.741 136.873C136.776 136.95 132.704 137.109 132.354 137.351C131.707 137.794 131.167 138.361 130.479 138.774C129.79 139.188 129.03 139.566 128.312 139.973Z" fill="#282328"/>
<path d="M133.625 110.992C133.625 110.992 134.07 122.595 135.405 129.132C136.741 135.669 136.854 137.334 136.854 137.334H133.174C133.174 137.334 127.493 118.828 126.051 114.612C124.608 110.396 123.932 107.633 123.932 107.633L133.625 110.992Z" fill="#282328"/>
<path d="M120.246 106.894C120.246 106.894 120.839 121.527 121.706 130.006C122.572 138.485 122.555 140.475 122.555 140.475C122.555 140.475 125.896 141.473 126.9 140.475L128.567 116.537L129.41 110.632L120.246 106.894Z" fill="#473F47"/>
<path d="M104.053 66.051C103.922 65.2893 103.934 64.4981 103.869 63.7245C103.867 63.4214 103.785 63.1241 103.631 62.8624C103.548 62.7358 103.424 62.6411 103.279 62.5939C103.135 62.5467 102.979 62.5498 102.836 62.6026C102.492 62.7739 102.48 63.2521 102.486 63.6419C102.492 64.0316 102.397 64.5276 102.011 64.5984C101.866 64.6168 101.72 64.5855 101.595 64.5099C101.402 64.4099 101.236 64.2657 101.11 64.089C100.984 63.9124 100.902 63.7085 100.871 63.4942C100.836 63.2403 100.871 62.9805 100.824 62.7266C100.675 61.9885 99.7257 62.1361 99.2805 62.4963C99.0299 62.7507 98.8287 63.049 98.6869 63.3761C98.3653 63.9276 98.1311 64.5251 97.9925 65.1476C97.5235 67.6925 100.604 68.2417 101.904 69.8714C102.081 70.1262 102.279 70.3653 102.498 70.5859C102.717 70.7774 102.984 70.907 103.27 70.9612C103.557 71.0153 103.853 70.9921 104.128 70.8938C104.402 70.7955 104.645 70.6258 104.831 70.4024C105.018 70.179 105.14 69.91 105.187 69.6234C105.335 68.6727 104.64 67.852 104.302 66.919C104.191 66.6383 104.108 66.3476 104.053 66.051Z" fill="#FFBBAB"/>
<path d="M118.797 52.777C118.631 52.272 118.364 51.8056 118.012 51.4058C117.66 51.0061 117.231 50.6811 116.749 50.4506C116.538 50.3458 116.295 50.3206 116.067 50.3797C115.907 50.4538 115.775 50.5769 115.691 50.731C115.606 50.8851 115.574 51.0621 115.598 51.2359C115.652 51.5825 115.786 51.9119 115.99 52.1984C116.116 52.3737 116.199 52.5759 116.233 52.7888C116.249 52.8992 116.224 53.0114 116.162 53.1048C116.101 53.1982 116.008 53.2663 115.901 53.2967C115.711 53.3262 115.503 53.1963 115.307 53.2967C115.237 53.3426 115.186 53.412 115.163 53.4922C115.14 53.5723 115.147 53.658 115.182 53.7336C115.264 53.8782 115.386 53.9969 115.533 54.0761C115.946 54.2865 116.343 54.5273 116.72 54.7965C117.396 55.387 117.61 56.3435 118.115 57.0875C118.159 57.1685 118.23 57.2312 118.316 57.2647C118.39 57.2765 118.465 57.264 118.53 57.2293C118.876 57.1089 119.17 56.8762 119.366 56.5687C119.562 56.2611 119.648 55.8968 119.61 55.5346C119.428 54.5917 119.156 53.6683 118.797 52.777Z" fill="#FFBBAB"/>
<path d="M126.335 62.8152C125.77 62.2488 125.276 61.6163 124.863 60.9316L120.423 54.2001L117.094 57.5717C116.966 57.6758 116.873 57.8157 116.826 57.9733C116.813 58.1604 116.861 58.3469 116.963 58.5047L119.385 63.1636C119.688 63.7815 120.042 64.3739 120.441 64.935C120.875 65.4588 121.337 65.9594 121.824 66.4348C123.463 68.1295 124.792 70.1549 126.822 71.3949C126.997 71.518 127.202 71.5933 127.416 71.6133C127.661 71.6072 127.899 71.5336 128.104 71.4008C129.713 70.5564 132.811 69.1865 131.778 66.8777C130.823 64.7933 127.897 64.2737 126.335 62.8152Z" fill="white"/>
<path opacity="0.1" d="M126.335 62.8152C125.77 62.2488 125.276 61.6163 124.863 60.9316L120.423 54.2001L117.094 57.5717C116.966 57.6758 116.873 57.8157 116.826 57.9733C116.813 58.1604 116.861 58.3469 116.963 58.5047L119.385 63.1636C119.688 63.7815 120.042 64.3739 120.441 64.935C120.875 65.4588 121.337 65.9594 121.824 66.4348C123.463 68.1295 124.792 70.1549 126.822 71.3949C126.997 71.518 127.202 71.5933 127.416 71.6133C127.661 71.6072 127.899 71.5336 128.104 71.4008C129.713 70.5564 132.811 69.1865 131.778 66.8777C130.823 64.7933 127.897 64.2737 126.335 62.8152Z" fill="white"/>
<path opacity="0.1" d="M120.667 57.3769C120.267 56.6569 120.155 55.8136 120.352 55.015C120.719 55.225 121.03 55.5184 121.261 55.8711C123.427 58.6759 125.19 61.8645 127.962 64.0847C128.314 64.3356 128.636 64.6248 128.924 64.9468C129.44 65.5845 129.481 67.0548 128.33 67.0253C127.505 67.0253 126.549 65.7971 126.015 65.2539C123.729 62.993 121.914 60.3064 120.673 57.3473L120.667 57.3769Z" fill="#020202"/>
<path d="M126.484 59.2723C126.429 59.7673 126.222 60.2333 125.89 60.6068C125.392 61.3744 125.113 62.4255 125.611 63.199C126.082 63.7511 126.699 64.1603 127.392 64.3799C128.045 64.6811 128.734 65.1771 128.769 65.8916C128.769 66.2813 128.639 66.7596 128.947 67.0076C129.101 67.1058 129.282 67.1533 129.464 67.1434C130.497 67.1965 131.529 67.2024 132.562 67.1434C132.74 67.1505 132.918 67.114 133.079 67.0371C133.319 66.8178 133.468 66.5162 133.494 66.1927C133.844 64.7579 134.96 63.6418 135.56 62.2896C135.982 61.3133 136.132 60.2417 135.993 59.1879C135.854 58.1341 135.431 57.1371 134.77 56.3022C134.606 56.0794 134.39 55.8991 134.141 55.7767C133.897 55.695 133.638 55.6629 133.381 55.6822C131.945 55.6822 130.378 55.6822 129.167 56.5089C128.128 57.2588 126.407 57.9319 126.484 59.2723Z" fill="#FFBBAB"/>
<path d="M129.398 54.9913C129.45 55.3729 129.65 55.7193 129.955 55.9564C130.26 56.1936 130.646 56.3028 131.03 56.2609C130.87 56.5207 131.209 56.8159 131.505 56.8513C131.802 56.8868 132.176 56.9281 132.324 57.1938C132.39 57.3119 132.39 57.4595 132.467 57.5776C132.544 57.6957 132.805 57.8138 132.924 57.9851C132.974 58.0904 133 58.2053 133 58.3216C133 58.438 132.974 58.5529 132.924 58.6582L132.402 60.2879C132.453 60.2012 132.524 60.1281 132.61 60.0746C132.695 60.0212 132.793 59.9891 132.893 59.981C132.994 59.9729 133.095 59.989 133.189 60.028C133.282 60.0671 133.364 60.1279 133.428 60.2053C133.524 60.3818 133.555 60.5854 133.517 60.7821C133.479 60.9789 133.375 61.1567 133.221 61.2858C132.906 61.5349 132.566 61.7506 132.206 61.9295C132.461 62.4845 133.393 62.4845 133.565 63.0691C133.606 63.2439 133.606 63.4257 133.565 63.6005L133.227 65.1417C133.648 65.1267 134.058 65.0003 134.414 64.7756L134.485 65.3129C134.616 65.0767 135.079 65.2302 135.031 65.5019C136.649 64.3958 138.08 63.0404 139.269 61.4866C139.471 61.2813 139.586 61.0064 139.59 60.719C139.563 60.579 139.528 60.441 139.483 60.3056C139.453 60.0437 139.478 59.7786 139.554 59.5262C139.768 58.6664 139.642 57.7579 139.204 56.9871C138.61 56.0483 137.459 55.635 136.45 55.1567C135.165 54.556 133.975 53.7723 132.918 52.8302C132.402 52.3696 132.413 52.8302 131.992 52.9719C131.571 53.1136 131.256 52.8833 130.876 53.0487C130.164 53.3734 129.333 54.2296 129.398 54.9913Z" fill="#FC682D"/>
<path d="M137.394 81.8463C137.495 85.7022 137.792 89.558 137.738 93.4138C137.661 98.982 136.848 104.509 136.041 110.018C136.034 110.299 135.922 110.566 135.726 110.768C135.548 110.879 135.342 110.936 135.132 110.933C133.009 111.049 130.88 110.918 128.787 110.544C126.105 110.048 123.474 109.307 120.928 108.329C118.934 107.591 116.69 106.393 116.447 104.29C116.405 103.696 116.453 103.099 116.589 102.519C117.408 98.0491 118.091 93.526 118.964 89.0797L119.516 86.269C119.622 85.7317 119.729 85.1884 119.878 84.6629C120.062 84.0193 120.311 83.3934 120.554 82.7734C121.071 81.4802 121.581 80.1812 122.098 78.888L122.133 78.8054C117.313 80.8012 111.271 78.7522 106.914 76.4434C104.967 75.4042 103.003 73.9575 102.439 71.8259C102.314 71.4299 102.314 71.0055 102.439 70.6095C102.565 70.3198 102.746 70.0572 102.973 69.836C103.497 69.2653 104.052 68.7233 104.635 68.2122C104.835 68.0094 105.078 67.854 105.347 67.7575C106.071 67.5508 106.742 68.159 107.288 68.6846C108.861 70.178 110.728 71.3314 112.771 72.0722C114.814 72.8131 116.989 73.1252 119.159 72.9891C120.35 72.9416 121.519 72.6628 122.602 72.1684C123.554 71.656 124.437 71.0272 125.232 70.2966C126.31 69.4487 127.287 68.482 128.146 67.415C128.311 67.1454 128.531 66.9139 128.793 66.736C129.081 66.6037 129.396 66.541 129.713 66.5529C130.983 66.4998 132.372 66.2518 133.625 66.299C134.877 66.3462 135.406 67.1434 136.171 68.0704C136.92 68.887 137.512 69.8338 137.916 70.8634C138.51 72.6348 137.916 74.5185 137.661 76.349C137.41 78.1701 137.321 80.0096 137.394 81.8463Z" fill="white"/>
<path opacity="0.1" d="M137.394 81.8463C137.495 85.7022 137.792 89.558 137.738 93.4138C137.661 98.982 136.848 104.509 136.041 110.018C136.034 110.299 135.922 110.566 135.726 110.768C135.548 110.879 135.342 110.936 135.132 110.933C133.009 111.049 130.88 110.918 128.787 110.544C126.105 110.048 123.474 109.307 120.928 108.329C118.934 107.591 116.69 106.393 116.447 104.29C116.405 103.696 116.453 103.099 116.589 102.519C117.408 98.0491 118.091 93.526 118.964 89.0797L119.516 86.269C119.622 85.7317 119.729 85.1884 119.878 84.6629C120.062 84.0193 120.311 83.3934 120.554 82.7734C121.071 81.4802 121.581 80.1812 122.098 78.888L122.133 78.8054C117.313 80.8012 111.271 78.7522 106.914 76.4434C104.967 75.4042 103.003 73.9575 102.439 71.8259C102.314 71.4299 102.314 71.0055 102.439 70.6095C102.565 70.3198 102.746 70.0572 102.973 69.836C103.497 69.2653 104.052 68.7233 104.635 68.2122C104.835 68.0094 105.078 67.854 105.347 67.7575C106.071 67.5508 106.742 68.159 107.288 68.6846C108.861 70.178 110.728 71.3314 112.771 72.0722C114.814 72.8131 116.989 73.1252 119.159 72.9891C120.35 72.9416 121.519 72.6628 122.602 72.1684C123.554 71.656 124.437 71.0272 125.232 70.2966C126.31 69.4487 127.287 68.482 128.146 67.415C128.311 67.1454 128.531 66.9139 128.793 66.736C129.081 66.6037 129.396 66.541 129.713 66.5529C130.983 66.4998 132.372 66.2518 133.625 66.299C134.877 66.3462 135.406 67.1434 136.171 68.0704C136.92 68.887 137.512 69.8338 137.916 70.8634C138.51 72.6348 137.916 74.5185 137.661 76.349C137.41 78.1701 137.321 80.0096 137.394 81.8463Z" fill="#020202"/>
<path d="M118.298 143.126C117.758 143.373 117.312 143.787 117.028 144.307C116.972 144.423 116.955 144.553 116.981 144.679C117.021 144.772 117.082 144.855 117.159 144.922C117.236 144.988 117.327 145.037 117.426 145.063C118.891 145.543 120.462 145.604 121.961 145.24C123.456 144.88 124.983 144.658 126.519 144.579C126.649 144.603 126.783 144.597 126.91 144.562C127.038 144.527 127.156 144.464 127.255 144.378C127.35 144.237 127.396 144.069 127.386 143.9C127.445 142.571 127.214 141.246 126.709 140.014C126.709 140.097 122.667 140.251 122.317 140.493C121.67 140.936 121.13 141.502 120.441 141.922C119.753 142.341 118.993 142.713 118.298 143.126Z" fill="#282328"/>
<path opacity="0.18" d="M57.3211 54.1352L59.9803 72.133C60.2533 74.0107 60.7163 76.0833 60.5264 77.9846C60.3364 79.886 59.9328 81.746 59.6479 83.606C60.1682 83.204 60.5532 82.6542 60.7519 82.0294C61.4345 83.6001 60.8647 85.3951 60.8054 87.1075C60.7839 87.3092 60.8167 87.513 60.9003 87.698C61.0117 87.8533 61.1753 87.9638 61.3616 88.0093C61.5478 88.0548 61.7443 88.0323 61.9153 87.946C62.2559 87.7637 62.5378 87.4894 62.7285 87.1548C63.5494 85.9282 64.1034 84.5444 64.3549 83.0923C64.6398 81.4921 64.0403 80.8425 63.5714 79.4844C63.1381 78.2208 63.5714 76.5852 63.7495 75.3038C64.1145 71.729 64.0548 68.1239 63.5714 64.563C63.3755 62.7916 63.1381 61.0615 62.9007 59.3078L62.4911 56.2491L61.4761 48.75C61.203 46.7305 60.9715 44.5103 59.6241 42.8452C58.437 41.4044 56.5494 40.9557 54.9765 40.1054C53.7893 39.4558 51.4151 38.9244 51.2548 37.2888C51.2706 36.5976 51.4759 35.9238 51.8484 35.3402C53.1343 32.7204 53.7074 29.8111 53.5104 26.9022C53.3501 24.5403 52.804 21.3576 51.0827 19.5744C50.4714 18.9174 49.6935 18.4364 48.8308 18.1818C47.968 17.9273 47.0523 17.9086 46.1798 18.1277C45.3662 18.4227 44.633 18.9024 44.0384 19.5287C43.4439 20.155 43.0044 20.9107 42.7549 21.7356C42.2683 23.3899 42.0992 25.1207 42.2563 26.8373C42.2893 28.719 42.5666 30.5886 43.0813 32.3996C43.5265 33.8168 44.9689 35.2871 44.684 36.8341C44.4287 38.204 43.016 38.6646 41.9001 39.1252C40.4865 39.6847 39.1811 40.4838 38.0419 41.4871C36.9793 42.5635 36.1686 43.8599 35.6676 45.2839C34.6111 47.9706 34.3855 50.5096 34.1659 53.3026C33.9107 56.5207 33.4596 59.7388 33.1034 62.9451C32.9769 63.9345 32.9036 64.9299 32.8838 65.927C32.8838 68.3244 33.4774 70.6863 33.691 73.0777C33.9392 75.2433 33.8512 77.434 33.4299 79.573C33.2815 80.2343 33.1272 80.8957 33.0381 81.5629C32.8904 82.6278 32.9245 83.7098 33.139 84.7633C33.3025 85.6586 33.7136 86.4908 34.3262 87.1666C34.4869 87.3535 34.6905 87.4994 34.9197 87.5917C35.0406 87.6335 35.1702 87.6435 35.296 87.6207C35.4219 87.5979 35.5396 87.5432 35.638 87.4618C35.8155 87.2461 35.9064 86.9726 35.8932 86.6942C35.965 85.7409 35.965 84.7836 35.8932 83.8304C35.8932 83.5765 35.8932 83.2399 36.1128 83.1513L36.3918 83.9307C36.4511 84.0961 36.558 84.2909 36.7301 84.2909C36.9023 84.2909 36.9854 84.1256 37.0388 83.978C37.5136 82.6199 36.7361 81.0787 36.6173 79.7265C36.469 78.1677 37.2109 76.6265 37.6027 75.1385C38.1962 72.6467 37.9173 70.0427 37.9232 67.4623C37.9486 65.1734 38.147 62.8897 38.5168 60.6304C38.6889 59.4967 38.8907 58.3689 39.1103 57.247C39.2587 56.4616 39.7573 55.2689 39.4368 54.5072C39.8879 58.7999 40.4399 63.0868 40.9385 67.3737C41.3008 69.747 41.4122 72.1516 41.2709 74.548C40.8317 79.0298 39.7336 83.1041 39.8167 87.6862C39.9057 92.658 40.4993 97.618 40.3272 102.596C40.1372 107.839 39.1044 113.118 39.9354 118.303C40.7308 123.221 43.1822 128.24 41.5796 132.964C41.4156 133.361 41.3058 133.778 41.2531 134.204C41.1878 135.297 42.1257 136.247 43.1704 136.566C44.2436 136.831 45.3623 136.857 46.4469 136.643C47.4678 136.519 48.6134 136.324 49.1892 135.462C50.2635 133.879 48.5184 132.013 48.1267 130.502C47.6815 128.561 47.4035 126.585 47.2957 124.597C47.0523 121.249 46.9633 117.889 46.9455 114.559C46.9455 111.406 47.2719 108.064 46.8921 104.975C46.5633 101.982 46.7642 98.9542 47.4856 96.0297C47.6993 95.1085 47.9486 94.1992 48.2157 93.2957C48.4116 92.6226 48.5303 91.3649 49.0586 90.8689C49.713 92.1283 50.1161 93.5018 50.2457 94.9137C50.598 97.7505 50.7824 100.605 50.7978 103.464C50.9046 106.416 51.0114 109.369 51.2904 112.321C51.8128 117.877 52.9287 123.505 51.8187 128.973C51.5931 130.106 51.2785 131.334 51.789 132.362C52.0962 132.881 52.5475 133.301 53.0887 133.571C53.6299 133.841 54.238 133.95 54.84 133.885C56.0429 133.739 57.1952 133.317 58.2055 132.651C58.545 132.502 58.8352 132.261 59.0424 131.954C59.3748 131.299 58.9356 130.531 58.5735 129.894C56.4248 126.126 56.5495 121.503 57.2439 117.228C57.9384 112.953 59.1612 108.713 58.995 104.385C58.8061 101.973 58.4691 99.5754 57.9859 97.2047C57.0955 91.7428 57.5941 86.5761 57.5229 81.1496C57.4576 76.5616 56.4723 72.0503 55.9262 67.4977C55.2779 62.9972 55.7571 58.4071 57.3211 54.1352Z" fill="#008E46"/>
<g opacity="0.18">
<path opacity="0.18" d="M85.7115 39.5444C84.0139 39.5444 82.4172 38.3634 81.4675 37.1825C80.9332 36.4986 80.4416 35.7828 79.9954 35.0391C79.4807 34.1591 78.8845 33.3288 78.2147 32.559C77.1962 31.4853 75.9058 30.7043 74.4791 30.298C73.0523 29.8918 71.5419 29.8753 70.1066 30.2503L69.9463 29.6598C71.4866 29.2608 73.1063 29.2798 74.6367 29.715C76.1671 30.1501 77.5523 30.9854 78.648 32.1339C79.3402 32.9314 79.9562 33.7914 80.4881 34.7025C80.9224 35.4239 81.398 36.1198 81.9127 36.7869C82.9396 38.0387 84.7618 39.32 86.5307 38.8004C87.4967 38.4193 88.3244 37.7565 88.9049 36.8991C89.6792 35.8496 90.3869 34.7531 91.024 33.616C91.9106 31.9393 93.0163 30.3866 94.3124 28.9984C95.1552 28.1659 96.4967 27.1975 98.0222 27.227C99.0946 27.3158 100.107 27.7561 100.901 28.4788C102.092 29.562 103.127 30.8039 103.976 32.1693C104.492 32.9251 105.026 33.6987 105.614 34.4013C107.039 36.1078 109.526 37.8025 111.852 36.9581C113.425 36.3676 114.363 34.8914 115.36 33.3148C116.358 31.7383 117.491 29.9255 119.403 29.4L119.557 29.9905C117.871 30.451 116.892 32.004 115.859 33.6455C114.826 35.2871 113.823 36.8873 112.054 37.525C109.442 38.4756 106.712 36.6511 105.157 34.797C104.563 34.0766 104.011 33.2853 103.483 32.5177C102.662 31.2067 101.663 30.0145 100.515 28.9748C99.8226 28.3374 98.938 27.9451 97.9984 27.8588C96.6807 27.7998 95.4817 28.6855 94.7219 29.4354C93.4649 30.7882 92.3913 32.2989 91.5285 33.9289C90.8812 35.0899 90.1596 36.2082 89.3679 37.277C88.7085 38.2382 87.7676 38.9741 86.6731 39.385C86.3613 39.4811 86.0378 39.5347 85.7115 39.5444Z" fill="#68E1FD"/>
</g>
<path d="M70.6765 39.8633L70.6172 39.2728C72.3408 39.1086 74.0233 38.6512 75.5913 37.9206C76.4129 37.5779 77.159 37.0784 77.7875 36.4503C78.329 35.8085 78.7784 35.0951 79.1231 34.3305C79.2655 34.0589 79.402 33.7813 79.5564 33.5097C80.7435 31.3604 83.2009 28.9217 86.1925 29.1579C88.359 29.3232 90.0922 30.8407 91.1607 32.1103C91.7542 32.8129 92.3063 33.5806 92.8286 34.3187C93.3791 35.1183 93.9735 35.8871 94.6093 36.6215C95.0918 37.242 95.7336 37.7214 96.4672 38.0092C97.8799 38.4579 99.346 37.5663 100.171 36.6688C100.832 35.8904 101.4 35.0383 101.863 34.1297C102.088 33.7282 102.314 33.3267 102.557 32.9488C103.596 31.2659 104.742 30.2857 106.047 29.9491C107.224 29.6992 108.45 29.8338 109.544 30.3329C110.778 30.8242 111.906 31.5457 112.868 32.4587C113.176 32.7598 113.461 33.0491 113.758 33.3857C114.174 33.8606 114.624 34.3047 115.105 34.7143C115.468 35.0382 115.898 35.279 116.365 35.4198C116.831 35.5606 117.323 35.5979 117.806 35.5291L117.931 36.1196C117.355 36.2046 116.768 36.1613 116.212 35.9928C115.655 35.8243 115.144 35.5348 114.714 35.1453C114.209 34.7196 113.737 34.2578 113.301 33.7636C113.022 33.4566 112.707 33.1731 112.434 32.8602C111.529 31.9996 110.467 31.3182 109.306 30.8525C108.328 30.406 107.233 30.2798 106.178 30.4924C105.026 30.7935 104 31.6733 103.044 33.2381C102.807 33.6219 102.587 34.0116 102.367 34.419C101.876 35.3666 101.279 36.256 100.587 37.0703C99.6428 38.0977 97.9452 39.1075 96.2594 38.5701C95.4234 38.2494 94.6895 37.711 94.1344 37.0112C93.4995 36.2557 92.9051 35.4673 92.3537 34.6493C91.8373 33.9171 91.3031 33.1672 90.7155 32.4823C89.7183 31.3013 88.1156 29.9078 86.1509 29.7602C83.4264 29.5653 81.1887 31.8091 80.0787 33.8109C79.9362 34.0707 79.7938 34.3423 79.6573 34.6139C79.2901 35.4244 78.8106 36.1796 78.2327 36.8577C77.5552 37.5447 76.7484 38.0924 75.8584 38.4697C74.2232 39.2235 72.4708 39.6948 70.6765 39.8633Z" fill="#008E46"/>
<path d="M128.793 110.544C126.11 110.048 123.479 109.307 120.934 108.329C118.939 107.591 116.696 106.393 116.452 104.29C116.411 103.696 116.459 103.099 116.595 102.519C117.414 98.0491 118.097 93.526 118.969 89.0797L119.521 86.269C119.628 85.7317 119.735 85.1885 119.883 84.6629C120.067 84.0193 120.317 83.3934 120.56 82.7734C121.076 81.4802 121.587 80.1812 122.103 78.888C123.961 78.3743 125.724 78.0732 127.546 76.9631C126.514 83.6786 125.141 90.3378 123.433 96.9154C122.596 100.145 121.806 104.001 124.026 106.475C125.439 108.04 127.896 108.873 128.793 110.544Z" fill="white"/>
<path opacity="0.2" d="M191.729 100.21H158.139V36.8991L191.729 34.8678V100.21Z" fill="#008E46"/>
<path d="M111.478 74.7311C108.766 73.7686 106.006 72.812 103.839 70.8752C103.588 70.6986 103.416 70.4318 103.358 70.1312C103.376 69.948 103.434 69.7708 103.527 69.6118C103.62 69.4528 103.747 69.3158 103.899 69.2101C104.285 68.8224 104.725 68.4904 105.204 68.224C105.445 68.0922 105.711 68.012 105.985 67.9886C106.259 67.9653 106.535 67.9992 106.795 68.0882C107.157 68.2683 107.483 68.5124 107.757 68.8086C109.748 70.595 112.2 71.7933 114.838 72.2688C117.402 72.8179 120.228 72.8592 122.691 71.879C124.121 71.2886 127.208 67.5804 128.627 68.1236C130.045 68.6668 129.404 71.4303 128.728 72.257C127.273 74.1051 123.587 74.9732 121.385 75.3924C118.083 76.0531 114.663 75.8248 111.478 74.7311Z" fill="white"/>
<path d="M133.073 68.6432C133.386 68.495 133.663 68.2818 133.886 68.018C134.109 67.7542 134.273 67.4459 134.367 67.1139C133.619 66.9612 132.852 66.9234 132.093 67.0017L129.927 67.1139L128.496 67.1907C127.606 67.232 127.588 67.6217 127.903 68.2299C128.057 68.5192 128.449 68.7554 128.639 69.0566C128.829 69.3577 128.84 69.7061 129.036 69.9364C129.63 70.6154 129.761 70.2316 130.491 69.7947C131.221 69.3577 132.248 69.0684 133.073 68.6432Z" fill="white"/>
</g>
<defs>
<linearGradient id="paint0_linear" x1="116.625" y1="114.376" x2="218.183" y2="181.629" gradientUnits="userSpaceOnUse">
<stop offset="0.01"/>
<stop offset="0.08" stop-opacity="0.69"/>
<stop offset="0.21" stop-opacity="0.32"/>
<stop offset="1" stop-opacity="0"/>
</linearGradient>
<clipPath id="clip0">
<rect width="214" height="178" fill="white"/>
</clipPath>
</defs>
</svg>
