<svg width="10" height="10" viewBox="0 0 10 10" fill="none" xmlns="http://www.w3.org/2000/svg">
<g clip-path="url(#clip0)">
<path d="M4.68792 0H4.61449C4.31608 0 4.06351 0.240257 4.06351 0.538668V1.05756L2.4981 0.601662C2.45413 0.588842 2.40684 0.594106 2.36685 0.616349C2.32678 0.638676 2.29741 0.676031 2.2851 0.720177L0.248345 7.73959C0.222197 7.83204 0.275512 7.92831 0.367795 7.95506L7.38746 9.99308C7.47932 10.0198 7.57559 9.96736 7.60301 9.87567L7.82035 9.12807H9.57949C9.67678 9.12739 9.75582 9.04929 9.75769 8.952V1.64266C9.75769 1.54664 9.67551 1.47788 9.57949 1.47788H5.48977L5.23712 1.39315V0.538668C5.23712 0.240257 4.98633 0 4.68792 0V0ZM4.41125 0.538668C4.41125 0.432038 4.50777 0.347736 4.61449 0.347736H4.68792C4.79464 0.347736 4.88938 0.432038 4.88938 0.538668V1.29212L4.41125 1.1585V0.538668ZM7.92138 8.78034L9.40995 3.66575V8.78034H7.92138ZM9.40995 1.82561V2.60564L6.68749 1.82561H9.40995ZM9.26257 2.92511L7.31955 9.61054L0.633011 7.66963L2.57748 0.984035L4.88938 1.65421V2.84055C4.88938 2.94863 4.80177 3.03615 4.69378 3.03615C4.58571 3.03615 4.49818 2.94863 4.49818 2.84055V2.11817C4.49818 2.02215 4.42033 1.9443 4.32431 1.9443C4.22829 1.9443 4.15044 2.02215 4.15044 2.11817V2.84055C4.15044 3.14066 4.39367 3.38389 4.69378 3.38389C4.99381 3.38389 5.23712 3.14066 5.23712 2.84055V1.75524L9.26257 2.92511Z" fill="url(#paint0_linear)"/>
</g>
<defs>
<linearGradient id="paint0_linear" x1="4.99969" y1="0" x2="4.99969" y2="10.0001" gradientUnits="userSpaceOnUse">
<stop stop-color="#6A6A6A"/>
<stop offset="1" stop-color="#CEE309"/>
</linearGradient>
<clipPath id="clip0">
<rect width="10" height="10" fill="white"/>
</clipPath>
</defs>
</svg>
