<svg width="34" height="11" viewBox="0 0 34 11" fill="none" xmlns="http://www.w3.org/2000/svg">
<path d="M24.1369 6.59605L27.2773 7.09212L28.696 10.0561C28.7749 10.26 29.0732 10.2594 29.1512 10.0552L30.6209 7.08546L33.7595 6.62398C33.9634 6.57649 34.0884 6.29368 33.884 6.12142L31.6033 3.78704L32.1462 0.520889C32.1928 0.316729 31.9726 0.0974023 31.7217 0.223482L28.9307 1.76739L26.1335 0.23461C25.9605 0.109374 25.7098 0.313941 25.7573 0.53361L26.2975 3.7976L24.0418 6.14102C23.838 6.2984 23.9328 6.59646 24.1369 6.59605Z" fill="#DFDDDD"/>
<path d="M12.6554 6.61891L15.7959 7.11498L17.2146 10.079C17.2935 10.2829 17.5917 10.2823 17.6698 10.0781L19.1394 7.10832L22.278 6.64684C22.482 6.59934 22.607 6.31654 22.4026 6.14428L20.1218 3.8099L20.6647 0.543746C20.7114 0.339587 20.4912 0.12026 20.2403 0.24634L17.4492 1.79025L14.652 0.257467C14.4791 0.132232 14.2283 0.336798 14.2759 0.556468L14.8161 3.82046L12.5603 6.16387C12.3566 6.32125 12.4513 6.61932 12.6554 6.61891Z" fill="#DFDDDD"/>
<path d="M1.17372 6.64178L4.3142 7.13785L5.73287 10.1018C5.81177 10.3058 6.11002 10.3052 6.1881 10.1009L7.65774 7.13119L10.7963 6.66972C11.0003 6.62222 11.1253 6.33941 10.9209 6.16715L8.64012 3.83277L9.18302 0.566619C9.22971 0.36246 9.00951 0.143133 8.7586 0.269213L5.96753 1.81312L3.17033 0.28034C2.99741 0.155104 2.74666 0.359671 2.79419 0.579341L3.3344 3.84334L1.07863 6.18675C0.874878 6.34413 0.969656 6.64219 1.17372 6.64178Z" fill="#DFDDDD"/>
</svg>
