<svg width="23" height="11" viewBox="0 0 23 11" fill="none" xmlns="http://www.w3.org/2000/svg">
<path d="M12.1967 6.67979L15.3371 7.17586L16.7558 10.1399C16.8347 10.3438 17.133 10.3432 17.211 10.1389L18.6807 7.1692L21.8193 6.70773C22.0232 6.66023 22.1483 6.37742 21.9438 6.20516L19.6631 3.87078L20.206 0.604629C20.2527 0.400469 20.0325 0.181143 19.7815 0.307222L16.9905 1.85113L14.1933 0.31835C14.0204 0.193114 13.7696 0.397681 13.8171 0.617351L14.3573 3.88134L12.1016 6.22476C11.8978 6.38214 11.9926 6.6802 12.1967 6.67979Z" fill="#DFDDDD"/>
<path d="M0.715226 6.70265L3.8557 7.19872L5.27438 10.1627C5.35327 10.3666 5.65152 10.366 5.7296 10.1618L7.19925 7.19206L10.3378 6.73058C10.5418 6.68308 10.6668 6.40028 10.4624 6.22802L8.18162 3.89364L8.72453 0.627487C8.77121 0.423327 8.55101 0.204 8.3001 0.33008L5.50903 1.87399L2.71183 0.341207C2.53891 0.215972 2.28816 0.420539 2.33569 0.640208L2.8759 3.9042L0.620135 6.24761C0.416382 6.40499 0.51116 6.70306 0.715226 6.70265Z" fill="#DFDDDD"/>
</svg>
