<svg width="57" height="12" viewBox="0 0 57 12" fill="none" xmlns="http://www.w3.org/2000/svg">
<path d="M47.0172 7.35985L50.1577 7.85591L51.5764 10.8199C51.6553 11.0238 51.9535 11.0232 52.0316 10.819L53.5013 7.84925L56.6398 7.38778C56.8438 7.34028 56.9688 7.05748 56.7644 6.88521L54.4836 4.55083L55.0265 1.28468C55.0732 1.08052 54.853 0.861196 54.6021 0.987276L51.811 2.53118L49.0138 0.998404C48.8409 0.873168 48.5902 1.07773 48.6377 1.2974L49.1779 4.5614L46.9221 6.90481C46.7184 7.06219 46.8132 7.36025 47.0172 7.35985Z" fill="#DFDDDD"/>
<path d="M35.5358 7.3827L38.6763 7.87877L40.0949 10.8428C40.1738 11.0467 40.4721 11.0461 40.5502 10.8419L42.0198 7.87211L45.1584 7.41064C45.3623 7.36314 45.4874 7.08033 45.283 6.90807L43.0022 4.57369L43.5451 1.30754C43.5918 1.10338 43.3716 0.884054 43.1207 1.01013L40.3296 2.55404L37.5324 1.02126C37.3595 0.896025 37.1087 1.10059 37.1562 1.32026L37.6965 4.58426L35.4407 6.92767C35.2369 7.08505 35.3317 7.38311 35.5358 7.3827Z" fill="#DFDDDD"/>
<path d="M24.0541 7.40558L27.1946 7.90164L28.6132 10.8656C28.6921 11.0695 28.9904 11.069 29.0685 10.8647L30.5381 7.89499L33.6767 7.43351C33.8807 7.38601 34.0057 7.10321 33.8013 6.93094L31.5205 4.59656L32.0634 1.33041C32.1101 1.12625 31.8899 0.906927 31.639 1.03301L28.8479 2.57691L26.0507 1.04413C25.8778 0.918898 25.627 1.12347 25.6746 1.34313L26.2148 4.60713L23.959 6.95054C23.7552 7.10792 23.85 7.40598 24.0541 7.40558Z" fill="#DFDDDD"/>
<path d="M12.5726 7.42844L15.7131 7.9245L17.1318 10.8885C17.2107 11.0924 17.5089 11.0918 17.587 10.8876L19.0567 7.91784L22.1952 7.45637C22.3992 7.40887 22.5242 7.12607 22.3198 6.9538L20.039 4.61942L20.5819 1.35327C20.6286 1.14911 20.4084 0.929785 20.1575 1.05586L17.3665 2.59977L14.5693 1.06699C14.3963 0.941756 14.1456 1.14632 14.1931 1.36599L14.7333 4.62999L12.4776 6.9734C12.2738 7.13078 12.3686 7.42884 12.5726 7.42844Z" fill="#DFDDDD"/>
<path d="M1.0912 7.45129L4.23168 7.94736L5.65035 10.9114C5.72925 11.1153 6.0275 11.1147 6.10558 10.9104L7.57523 7.9407L10.7138 7.47922C10.9178 7.43173 11.0428 7.14892 10.8384 6.97666L8.5576 4.64228L9.1005 1.37613C9.14719 1.17197 8.92699 0.952642 8.67608 1.07872L5.88501 2.62263L3.08781 1.08985C2.91489 0.964614 2.66414 1.16918 2.71167 1.38885L3.25188 4.65284L0.996112 6.99626C0.792359 7.15364 0.887136 7.4517 1.0912 7.45129Z" fill="#DFDDDD"/>
</svg>
