<svg width="45" height="11" viewBox="0 0 45 11" fill="none" xmlns="http://www.w3.org/2000/svg">
<path d="M35.077 6.48936L38.2175 6.98543L39.6362 9.94942C39.7151 10.1533 40.0133 10.1527 40.0914 9.94852L41.5611 6.97877L44.6996 6.5173C44.9036 6.4698 45.0286 6.18699 44.8242 6.01473L42.5434 3.68035L43.0863 0.414199C43.133 0.21004 42.9128 -0.00928714 42.6619 0.116793L39.8708 1.6607L37.0736 0.12792C36.9007 0.00268438 36.65 0.207251 36.6975 0.426921L37.2377 3.69091L34.982 6.03433C34.7782 6.19171 34.873 6.48977 35.077 6.48936Z" fill="#DFDDDD"/>
<path d="M23.5956 6.51222L26.7361 7.00829L28.1547 9.97228C28.2336 10.1762 28.5319 10.1756 28.61 9.97137L30.0796 7.00163L33.2182 6.54015C33.4222 6.49265 33.5472 6.20985 33.3428 6.03759L31.062 3.70321L31.6049 0.437057C31.6516 0.232897 31.4314 0.0135705 31.1805 0.13965L28.3894 1.68356L25.5922 0.150778C25.4193 0.025542 25.1685 0.230109 25.2161 0.449779L25.7563 3.71377L23.5005 6.05718C23.2968 6.21457 23.3915 6.51263 23.5956 6.51222Z" fill="#DFDDDD"/>
<path d="M12.1139 6.53509L15.2544 7.03116L16.6731 9.99515C16.752 10.1991 17.0502 10.1985 17.1283 9.99425L18.5979 7.0245L21.7365 6.56303C21.9405 6.51553 22.0655 6.23272 21.8611 6.06046L19.5803 3.72608L20.1232 0.45993C20.1699 0.25577 19.9497 0.0364434 19.6988 0.162523L16.9077 1.70643L14.1105 0.173651C13.9376 0.048415 13.6868 0.252982 13.7344 0.472651L14.2746 3.73665L12.0188 6.08006C11.8151 6.23744 11.9098 6.5355 12.1139 6.53509Z" fill="#DFDDDD"/>
<path d="M0.632462 6.55795L3.77294 7.05402L5.19161 10.018C5.27051 10.2219 5.56876 10.2213 5.64684 10.0171L7.11648 7.04736L10.2551 6.58588C10.459 6.53839 10.584 6.25558 10.3796 6.08332L8.09886 3.74894L8.64176 0.482787C8.68845 0.278628 8.46825 0.0593011 8.21734 0.185381L5.42627 1.72929L2.62907 0.196508C2.45615 0.0712726 2.2054 0.27584 2.25293 0.495509L2.79314 3.7595L0.537372 6.10292C0.333618 6.2603 0.428396 6.55836 0.632462 6.55795Z" fill="#DFDDDD"/>
</svg>
